<svg xmlns="http://www.w3.org/2000/svg" width="121" height="46" viewBox="0 0 121 46" fill="none"><path d="M117.749 32.8368V1.87391C117.749 1.03646 118.432 0.353872 119.269 0.353872C120.107 0.353872 120.783 0.0269199 120.783 0.864375V33.8406C120.783 34.6781 120.107 34.3511 119.269 34.3511C118.432 34.3511 117.749 33.6685 117.749 32.8426V32.8368Z" fill="#252F3E"></path><path d="M109.959 32.8368V9.76661C109.959 8.93489 110.636 8.25804 111.479 8.25804C112.311 8.25804 112.982 7.91962 112.982 8.75707V33.8349C112.982 34.6723 112.311 34.3454 111.479 34.3454C110.636 34.3454 109.959 33.6628 109.959 32.8368Z" fill="#252F3E"></path><path d="M34.6915 34.3454H34.657C32.8674 34.2995 31.313 34.0413 29.9765 33.462C28.6285 32.8884 27.5215 31.9649 26.7299 30.789C25.1582 28.4086 24.7624 25.271 24.751 21.187V9.77234C24.751 8.93489 25.4278 8.25804 26.2653 8.25804C27.097 8.25804 27.7796 7.91962 27.7796 8.75707V21.187C27.7681 24.0951 28.032 26.2977 28.5998 27.8121C29.1734 29.3206 29.9019 30.1122 31.1753 30.6858C32.0357 31.0586 33.1944 31.2938 34.7201 31.3225H34.8922C36.7908 31.334 39.6646 30.6628 42.7849 29.6418V9.77234C42.7849 8.93489 43.4618 8.25804 44.2993 8.25804C45.131 8.25804 45.8078 7.91962 45.8078 8.75707V30.7317C45.8078 31.3684 45.4063 31.9477 44.7868 32.1599C41.1215 33.4046 37.6799 34.3281 34.8922 34.3396H34.7029L34.6915 34.3454Z" fill="#252F3E"></path><path d="M21.1658 24.5368V21.1984V10.2025C21.1658 9.80674 21.0052 9.42242 20.7242 9.14136C20.4431 8.85456 20.053 8.69395 19.6515 8.69395C16.2214 8.69395 12.9461 8.09741 10.2617 8.08594H9.95195C8.1738 8.12609 6.6136 8.38421 5.25417 8.96355C3.22363 9.80674 1.77242 11.4702 1.02674 13.5409C0.252384 15.623 0 18.1354 0 21.187V21.1984C0.017208 25.2652 0.412992 28.3914 2.00186 30.7661C2.79917 31.9362 3.91769 32.854 5.25417 33.4276C6.6136 34.0069 8.17379 34.2593 9.96916 34.2994H10.1929C12.4758 34.288 15.2119 33.6742 18.143 32.7679V44.5956C18.143 45.4273 18.8198 45.1003 19.6515 45.1003C20.4832 45.1003 21.1658 44.4292 21.1658 43.5918V24.5368ZM10.1929 31.2708H10.0208C8.48927 31.2479 7.31913 31.0127 6.453 30.6399C5.1624 30.072 4.43966 29.2747 3.85459 27.7776C3.28099 26.2805 3.02287 24.0779 3.02287 21.1927V21.1812C3.0114 17.3152 3.51043 14.7225 4.49702 13.3114C4.99032 12.5944 5.58113 12.1126 6.453 11.734C7.3134 11.3555 8.48927 11.1318 10.0208 11.1031C10.0954 11.1031 10.1757 11.1031 10.2617 11.1031H10.3191C12.2406 11.1031 15.034 11.5505 18.143 11.6767V21.187V29.5902C14.9996 30.6112 12.1087 31.2766 10.1929 31.2594V31.2708Z" fill="#252F3E"></path><path d="M95.642 11.1029H103.466C104.303 11.1029 104.986 10.4204 104.986 9.58291C104.986 8.74545 105.313 8.06861 104.481 8.06861H95.642V1.97698C95.642 1.13952 94.9652 0.462676 94.1277 0.462676C93.2903 0.462676 92.6191 0.129989 92.6191 0.967444V21.2671C92.6363 25.334 93.078 28.5002 94.839 30.8749C95.7166 32.0508 96.9269 32.9456 98.3666 33.4905C99.8178 34.0584 101.487 34.2993 103.443 34.3452H103.466L104.252 34.3682C105.072 34.3682 104.969 33.6856 104.992 32.8596C104.997 32.0221 104.344 31.3338 103.506 31.3223C101.78 31.2879 100.449 31.0585 99.4622 30.6684C97.9708 30.0719 97.1793 29.2631 96.5426 27.7947C95.9288 26.3205 95.642 24.1409 95.642 21.2729V11.1029Z" fill="#252F3E"></path><path d="M58.6963 34.2994C55.9086 34.2421 53.5683 33.4735 51.859 32.1656C50.1439 30.8636 49.0942 28.9478 49.1057 26.8828C49.0942 25.1391 49.5531 23.5961 50.3963 22.3112C51.2452 21.0263 52.4153 20.0225 53.769 19.1449C56.4994 17.4012 60.0442 16.0934 64.0938 14.2808C64.4036 14.1374 64.7535 13.9768 65.1263 13.8047C64.7363 13.2426 64.3233 12.8181 63.8988 12.4797C62.3845 11.2809 60.4687 11.1031 59.1838 11.1088C59.0519 11.1088 58.9314 11.1145 58.8225 11.1145L54.4115 11.6193C53.5798 11.7054 52.8283 11.1088 52.7366 10.2714C52.6448 9.44537 52.5014 8.82015 53.3331 8.73411L54.073 8.60218L58.5471 8.09741H58.6676C58.8339 8.08594 59.006 8.08594 59.1781 8.08594C60.6924 8.08594 63.3768 8.24081 65.7573 10.105C66.5431 10.713 67.2486 11.4874 67.8567 12.4682C69.0153 11.8946 70.2715 11.2809 71.522 10.6958C74.4129 9.39375 77.1776 8.24081 79.5409 8.20639H79.6613C81.2904 8.24081 82.7244 8.5104 83.9576 9.10121C85.208 9.68628 86.2118 10.627 86.9174 11.8029C88.3169 14.1489 88.6611 17.2291 88.6783 21.2787V33.6169C88.6783 34.46 87.9957 34.1274 87.1583 34.1274C86.3208 34.1274 85.644 33.4562 85.644 32.6131V21.2787C85.644 18.3878 85.4145 16.1737 84.904 14.6651C84.3763 13.1394 83.7224 12.365 82.6498 11.843C81.9213 11.4816 80.9232 11.2694 79.5753 11.2407H79.5351C78.2732 11.2006 75.4913 12.1872 72.7781 13.4548C71.5334 14.0284 70.2772 14.6479 69.0842 15.233C69.6004 16.8735 69.8872 18.8467 69.8815 21.2042C69.8815 28.7871 69.8815 30.4219 69.8815 30.7259V30.7775C69.8815 31.1791 69.7208 31.5691 69.4455 31.8502C69.1817 32.1083 68.8203 32.2689 68.4532 32.2861C64.9198 33.4677 61.5987 34.3167 58.9085 34.3281H58.6848L58.6963 34.2994ZM65.3213 17.0341C62.2182 18.4165 59.4764 19.5006 57.3311 20.5961C55.1801 21.6745 53.6945 22.7586 52.9259 23.9574C52.4039 24.7605 52.1228 25.6324 52.1171 26.8713C52.1171 27.921 52.6104 28.9133 53.6887 29.7623C54.7786 30.5997 56.4879 31.2249 58.7422 31.2651H58.9142C60.8301 31.2823 63.7267 30.6227 66.8643 29.5959V21.1755C66.8586 19.2883 66.6578 17.7683 66.3366 16.5637C65.9752 16.7358 65.6368 16.8907 65.3156 17.0341H65.3213Z" fill="#252F3E"></path></svg>