<svg xmlns="http://www.w3.org/2000/svg" id="Layer_1" data-name="Layer 1" width="203" height="21" viewBox="0 0 203 21"><defs><style>.cls-1{fill:#36c2b4;}</style></defs><path class="cls-1" d="M15.0333,9.0209c0-1.6864-.4015-2.7877-2.0535-2.7877S9.6874,7.92,9.6874,10.7933V14.711a9.779,9.779,0,0,1,1.7494.2811v.5449H8.6205V9.0037c0-1.5086-.304-2.77-2.0478-2.77-1.847,0-3.2982,1.87-3.2982,4.56V14.711a9.6961,9.6961,0,0,1,1.7495.2811v.5449H.4639v-.5449a9.1568,9.1568,0,0,1,1.7437-.2811V6.434c-.4818-.08-1.1644-.1607-1.7437-.2008V5.6883a18.0844,18.0844,0,0,1,2.8508-.1434,15.2734,15.2734,0,0,1-.1779,2.3919l.0345.0172A3.7731,3.7731,0,0,1,6.7907,5.3613,2.4732,2.4732,0,0,1,9.5841,7.9138a3.7823,3.7823,0,0,1,3.5735-2.5525c1.847,0,2.9369.9637,2.9369,3.2122V14.7a9.6324,9.6324,0,0,1,1.7437.2811v.5449H15.0276v-6.51Z"></path><path class="cls-1" d="M25.4562,15.5317a14.8112,14.8112,0,0,1,.12-2.2714l-.04-.0172A3.7549,3.7549,0,0,1,21.94,15.6924c-1.5085,0-2.6959-.7629-2.6959-2.3289,0-1.9674,2.0937-3.476,6.2121-3.476V8.9411c0-1.7093-.5908-2.673-2.432-2.673a8.62,8.62,0,0,0-2.2486.2983c-.0631.6023-.1663,1.2676-.281,1.933h-.6195V5.93a9.3382,9.3382,0,0,1,3.3728-.5449c2.5467,0,3.2752,1.3823,3.2752,3.172v6.0859c.4818.08,1.1644.1663,1.7438.2065v.5449a17.8107,17.8107,0,0,1-2.8107.1434Zm0-4.7838c-4.1987,0-5.105,1.348-5.105,2.369a1.6409,1.6409,0,0,0,1.824,1.6692c1.9732,0,3.281-1.99,3.281-3.9177Z"></path><path class="cls-1" d="M33.3025,15.6749c-1.9044,0-2.455-.9062-2.455-2.8794V6.3941h-2.369V5.5509h2.369V2.138l1.0669-.304V5.5509h3.1548v.8432H31.9144v5.8048c0,2.0076.3384,2.5067,1.6462,2.5067a5.9206,5.9206,0,0,0,1.5086-.2008v.9809a9.8306,9.8306,0,0,1-1.7667.1835Z"></path><path class="cls-1" d="M44.8541,9.9277H37.9824c-.1434,3.4588,1.1472,4.8412,3.5391,4.8412a6.8977,6.8977,0,0,0,2.8967-.6425l.0975.9809a8.2182,8.2182,0,0,1-3.172.5851c-2.954,0-4.497-1.6291-4.497-5.1223,0-2.9712,1.5888-5.1853,4.2561-5.1853s3.78,1.87,3.78,3.9578c0,.1262,0,.3212-.0229.5851ZM41.0167,6.2108a3.02,3.02,0,0,0-2.931,2.8565h5.6212A2.5758,2.5758,0,0,0,41.0167,6.2108Z"></path><path class="cls-1" d="M61.1678,9.0209c0-1.6864-.4072-2.7877-2.0535-2.7877s-3.2982,1.6864-3.2982,4.56V14.711a9.6148,9.6148,0,0,1,1.75.2811v.5449H54.7492V9.0037c0-1.5086-.304-2.77-2.0535-2.77-1.8469,0-3.2924,1.87-3.2924,4.56V14.711a9.631,9.631,0,0,1,1.7437.2811v.5449h-4.56v-.5449a9.1578,9.1578,0,0,1,1.7438-.2811V6.434c-.4819-.08-1.1645-.1607-1.7438-.2008V5.6883a18.0863,18.0863,0,0,1,2.8565-.1434A15.2725,15.2725,0,0,1,49.26,7.9368l.04.0172a3.7629,3.7629,0,0,1,3.62-2.5927,2.4677,2.4677,0,0,1,2.7876,2.5525,3.7845,3.7845,0,0,1,3.5793-2.5525c1.847,0,2.9311.9637,2.9311,3.2122V14.7a9.5525,9.5525,0,0,1,1.7438.2811v.5449H61.1506v-6.51Z"></path><path class="cls-1" d="M71.59,15.5309a14.7541,14.7541,0,0,1,.1262-2.2715l-.04-.0172a3.7628,3.7628,0,0,1-3.6022,2.4493c-1.5029,0-2.69-.7629-2.69-2.3289,0-1.9674,2.0936-3.476,6.2063-3.476V8.94c0-1.7093-.585-2.673-2.432-2.673a8.6519,8.6519,0,0,0-2.2485.2983c-.0574.6023-.1607,1.2676-.2811,1.933h-.62v-2.57a9.383,9.383,0,0,1,3.3728-.5449c2.5468,0,3.281,1.3824,3.281,3.172v6.0859c.4818.08,1.1644.1663,1.7437.2065v.5449a17.92,17.92,0,0,1-2.8164.1434Zm0-4.7839c-4.1987,0-5.105,1.348-5.105,2.369a1.6428,1.6428,0,0,0,1.83,1.6692c1.9674,0,3.2752-1.99,3.2752-3.9177ZM69.1007,3.7548l-.5851-.585L70.7469.9385l.7457.7457Z"></path><path class="cls-1" d="M79.4373,15.6749c-1.91,0-2.455-.9062-2.455-2.8794V6.3941h-2.369V5.5509h2.369V2.138l1.0668-.304V5.5509h3.1548v.8432H78.0491v5.8048c0,2.0076.3385,2.5067,1.6463,2.5067a5.9192,5.9192,0,0,0,1.5085-.2008v.9809a9.8852,9.8852,0,0,1-1.7666.1835Z"></path><path class="cls-1" d="M82.6719,15.5317v-.5449a9.1568,9.1568,0,0,1,1.7437-.2811V6.4287c-.4818-.08-1.1644-.1606-1.7437-.2008V5.683A17.8226,17.8226,0,0,1,85.4883,5.54V14.7a9.6325,9.6325,0,0,1,1.7437.281v.545h-4.56Zm2.2886-11.994a.8031.8031,0,1,1,.8088-.803A.7945.7945,0,0,1,84.9605,3.5377Z"></path><path class="cls-1" d="M92.8991,15.6339c-2.0076,0-4.2389-.8088-4.2389-4.7437,0-3.3326,1.6519-5.4664,4.8067-5.4664a8.7058,8.7058,0,0,1,2.4321.3614v2.61h-.6252c-.1377-.6654-.2352-1.348-.2983-1.9273a5.8365,5.8365,0,0,0-1.6462-.218c-2.3518,0-3.5392,1.7667-3.5392,4.3766,0,2.2141.6425,4.0955,3.3327,4.0955a6.2013,6.2013,0,0,0,2.7532-.62l.1033.9464a8.4069,8.4069,0,0,1-3.0745.5851Z"></path><path class="cls-1" d="M103.964,15.5317a15.5107,15.5107,0,0,1,.121-2.2714l-.041-.0172a3.7427,3.7427,0,0,1-3.596,2.4493c-1.5086,0-2.69-.7629-2.69-2.3289,0-1.9674,2.0936-3.476,6.2062-3.476V8.9411c0-1.7093-.579-2.673-2.432-2.673a8.6821,8.6821,0,0,0-2.2484.2983c-.0631.6023-.1606,1.2676-.2811,1.933h-.62V5.93a9.3406,9.3406,0,0,1,3.373-.5449c2.552,0,3.275,1.3823,3.275,3.172v6.0859c.488.08,1.17.1663,1.755.2065v.5449a17.88,17.88,0,0,1-2.816.1434Zm0-4.7838c-4.1929,0-5.1049,1.348-5.1049,2.369a1.6428,1.6428,0,0,0,1.83,1.6692c1.967,0,3.275-1.99,3.275-3.9177Z"></path><path class="cls-1" d="M110.675,15.6925a9.2431,9.2431,0,0,1-2.094-.218V12.7614h.585a14.959,14.959,0,0,1,.299,1.87,7.17,7.17,0,0,0,1.359.12c1.652,0,2.794-.7457,2.794-1.95,0-2.6672-5.203-.9808-5.203-4.6,0-1.6291,1.348-2.8107,3.751-2.8107a8.5419,8.5419,0,0,1,2.014.2581V8.2414h-.585a15.3374,15.3374,0,0,1-.304-1.847,6.2986,6.2986,0,0,0-1.308-.1434c-1.646,0-2.49.7-2.49,1.8069,0,2.73,5.203,1.0841,5.203,4.56,0,1.6692-1.486,3.0745-4.038,3.0745Z"></path><path class="cls-1" d="M127.625,15.5317a14.6437,14.6437,0,0,1,.127-2.2714l-.041-.0172a3.7567,3.7567,0,0,1-3.602,2.4493c-1.503,0-2.69-.7629-2.69-2.3289,0-1.9674,2.094-3.476,6.206-3.476V8.9411c0-1.7093-.573-2.673-2.432-2.673a8.6482,8.6482,0,0,0-2.248.2983c-.058.6023-.161,1.2676-.281,1.933h-.62V5.93a9.3858,9.3858,0,0,1,3.373-.5449c2.552,0,3.281,1.3823,3.281,3.172v6.0859c.482.08,1.164.1663,1.744.2065v.5449a17.9311,17.9311,0,0,1-2.817.1434Zm0-4.7838c-4.193,0-5.105,1.348-5.105,2.369a1.646,1.646,0,0,0,1.83,1.6692c1.968,0,3.275-1.99,3.275-3.9177Z"></path><path class="cls-1" d="M136.441,15.6349a12.201,12.201,0,0,1-2.087-.1434v4.279a9.9913,9.9913,0,0,1,1.743.2753v.545h-4.554v-.545a9.56,9.56,0,0,1,1.744-.2753V6.4286c-.482-.08-1.17-.1606-1.744-.2008V5.6829a18.333,18.333,0,0,1,2.851-.1434,13.1461,13.1461,0,0,1-.184,2.3919l.04.0172a3.7268,3.7268,0,0,1,3.539-2.57c2.329,0,3.7,1.5659,3.7,4.7207,0,3.6367-2.03,5.5295-5.048,5.5295Zm1.228-9.3841c-2.266,0-3.31,2.65-3.31,4.4626v3.7743a6.9159,6.9159,0,0,0,2.209.2982c2.306,0,3.797-1.3594,3.797-4.6C140.365,7.7593,139.516,6.2508,137.669,6.2508Z"></path><path class="cls-1" d="M147.512,14.9921v.545h-4.56v-.545a9.1337,9.1337,0,0,1,1.75-.281V1.7535c-.482-.08-1.165-.1607-1.75-.2008V1.0078A17.8638,17.8638,0,0,1,145.769.87v13.841A9.5465,9.5465,0,0,1,147.512,14.9921Z"></path><path class="cls-1" d="M148.63,15.5317v-.5449a9.221,9.221,0,0,1,1.749-.2811V6.4287c-.487-.08-1.164-.1606-1.749-.2008V5.683a17.8941,17.8941,0,0,1,2.816-.1434V14.7a9.46,9.46,0,0,1,1.744.281v.545h-4.56Zm2.294-11.994a.8031.8031,0,1,1,.803-.803A.7948.7948,0,0,1,150.924,3.5377Z"></path><path class="cls-1" d="M158.857,15.6339c-2.007,0-4.233-.8088-4.233-4.7437,0-3.3326,1.646-5.4664,4.801-5.4664a8.7039,8.7039,0,0,1,2.432.3614v2.61h-.619a17.6519,17.6519,0,0,1-.299-1.9273,5.8755,5.8755,0,0,0-1.652-.218c-2.351,0-3.533,1.7667-3.533,4.3766,0,2.2141.642,4.0955,3.327,4.0955a6.23,6.23,0,0,0,2.759-.62l.097.9464a8.4011,8.4011,0,0,1-3.074.5851Z"></path><path class="cls-1" d="M169.928,15.5317a14.8557,14.8557,0,0,1,.12-2.2714l-.04-.0172a3.75,3.75,0,0,1-3.596,2.4493c-1.509,0-2.696-.7629-2.696-2.3289,0-1.9674,2.093-3.476,6.212-3.476V8.9411c0-1.7093-.579-2.673-2.432-2.673a8.622,8.622,0,0,0-2.249.2983c-.063.6023-.166,1.2676-.281,1.933h-.619V5.93a9.3351,9.3351,0,0,1,3.373-.5449c2.546,0,3.275,1.3823,3.275,3.172v6.0859c.482.08,1.164.1663,1.744.2065v.5449a17.8158,17.8158,0,0,1-2.811.1434Zm0-4.7838c-4.199,0-5.105,1.348-5.105,2.369a1.641,1.641,0,0,0,1.824,1.6692c1.973,0,3.281-1.99,3.281-3.9177Z"></path><path class="cls-1" d="M181.239,15.5311a13.9417,13.9417,0,0,1,.195-2.3919l-.04-.023a3.7193,3.7193,0,0,1-3.539,2.57c-2.489,0-3.694-1.79-3.694-4.7207,0-3.6366,2.025-5.5237,5.036-5.5237a19.9859,19.9859,0,0,1,2.094.12v-3.82c-.482-.08-1.164-.1606-1.744-.2007V.9961a17.8638,17.8638,0,0,1,2.817-.1377V14.6363c.481.08,1.164.1663,1.743.2065v.5449a18.286,18.286,0,0,1-2.873.1434Zm.058-8.9826a9.4134,9.4134,0,0,0-2.209-.2581c-2.311,0-3.791,1.3652-3.791,4.6,0,2.432.843,3.9349,2.684,3.9349,2.278,0,3.316-2.65,3.316-4.4627Z"></path><path class="cls-1" d="M191.886,15.5317a15.6654,15.6654,0,0,1,.12-2.2714l-.04-.0172a3.7486,3.7486,0,0,1-3.596,2.4493c-1.509,0-2.69-.7629-2.69-2.3289,0-1.9674,2.088-3.476,6.206-3.476V8.9411c0-1.7093-.579-2.673-2.432-2.673a8.622,8.622,0,0,0-2.249.2983c-.063.6023-.16,1.2676-.281,1.933h-.619V5.93a9.3351,9.3351,0,0,1,3.373-.5449c2.546,0,3.269,1.3823,3.269,3.172v6.0859c.482.08,1.17.1663,1.744.2065v.5449a17.8158,17.8158,0,0,1-2.811.1434Zm0-4.7838c-4.199,0-5.105,1.348-5.105,2.369a1.641,1.641,0,0,0,1.824,1.6692c1.973,0,3.275-1.99,3.275-3.9177v-.12Z"></path><path class="cls-1" d="M198.591,15.6925a9.2046,9.2046,0,0,1-2.094-.218V12.7614h.58a15.1647,15.1647,0,0,1,.304,1.87,7.17,7.17,0,0,0,1.359.12c1.646,0,2.794-.7457,2.794-1.95,0-2.6672-5.203-.9808-5.203-4.6,0-1.6291,1.348-2.8107,3.751-2.8107a8.5352,8.5352,0,0,1,2.014.2581V8.2414h-.591a16.5842,16.5842,0,0,1-.298-1.847,6.3381,6.3381,0,0,0-1.308-.1434c-1.646,0-2.49.7-2.49,1.8069,0,2.73,5.203,1.0841,5.203,4.56,0,1.6692-1.486,3.0745-4.038,3.0745Z"></path></svg>